<mxfile host="65bd71144e">
    <diagram id="ncgY7ncJiFq52lVPc8Ht" name="Main">
        <mxGraphModel dx="1437" dy="825" grid="1" gridSize="10" guides="1" tooltips="1" connect="1" arrows="1" fold="1" page="1" pageScale="1" pageWidth="850" pageHeight="1100" math="0" shadow="0">
            <root>
                <mxCell id="0"/>
                <mxCell id="1" parent="0"/>
                <mxCell id="29" value="" style="group" parent="1" vertex="1" connectable="0">
                    <mxGeometry x="100" y="50" width="370" height="280" as="geometry"/>
                </mxCell>
                <mxCell id="Ivx73bPxGIifTJIDBlVP-31" value="" style="group" vertex="1" connectable="0" parent="29">
                    <mxGeometry width="274.4166666666667" height="280" as="geometry"/>
                </mxCell>
                <mxCell id="6" value="&lt;font style=&quot;font-size: 7px;&quot;&gt;ADMIN&lt;/font&gt;" style="whiteSpace=wrap;html=1;aspect=fixed;" parent="Ivx73bPxGIifTJIDBlVP-31" vertex="1">
                    <mxGeometry y="177.33333333333334" width="37" height="37" as="geometry"/>
                </mxCell>
                <mxCell id="9" value="BOT" style="rounded=1;whiteSpace=wrap;html=1;" parent="Ivx73bPxGIifTJIDBlVP-31" vertex="1">
                    <mxGeometry x="82.22222222222223" y="93.33333333333333" width="123.33333333333334" height="56" as="geometry"/>
                </mxCell>
                <mxCell id="10" value="" style="endArrow=classic;html=1;entryX=1;entryY=0;entryDx=0;entryDy=0;exitX=0;exitY=1;exitDx=0;exitDy=0;" parent="Ivx73bPxGIifTJIDBlVP-31" source="12" target="9" edge="1">
                    <mxGeometry relative="1" as="geometry">
                        <mxPoint x="298.0555555555556" y="28" as="sourcePoint"/>
                        <mxPoint x="164.44444444444446" y="158.66666666666666" as="targetPoint"/>
                    </mxGeometry>
                </mxCell>
                <mxCell id="11" value="&lt;font style=&quot;font-size: 8px;&quot;&gt;/register&lt;br&gt;&lt;/font&gt;" style="edgeLabel;resizable=0;html=1;;align=center;verticalAlign=middle;" parent="10" connectable="0" vertex="1">
                    <mxGeometry relative="1" as="geometry"/>
                </mxCell>
                <mxCell id="12" value="S1" style="whiteSpace=wrap;html=1;aspect=fixed;" parent="Ivx73bPxGIifTJIDBlVP-31" vertex="1">
                    <mxGeometry x="246.66666666666669" width="27.750000000000004" height="27.750000000000004" as="geometry"/>
                </mxCell>
                <mxCell id="14" value="T1" style="whiteSpace=wrap;html=1;aspect=fixed;" parent="Ivx73bPxGIifTJIDBlVP-31" vertex="1">
                    <mxGeometry x="10.277777777777779" width="27.750000000000004" height="27.750000000000004" as="geometry"/>
                </mxCell>
                <mxCell id="15" value="" style="endArrow=classic;html=1;entryX=0;entryY=0;entryDx=0;entryDy=0;exitX=1;exitY=1;exitDx=0;exitDy=0;" parent="Ivx73bPxGIifTJIDBlVP-31" source="14" target="9" edge="1">
                    <mxGeometry relative="1" as="geometry">
                        <mxPoint x="298.0555555555556" y="37.333333333333336" as="sourcePoint"/>
                        <mxPoint x="215.83333333333337" y="102.66666666666667" as="targetPoint"/>
                    </mxGeometry>
                </mxCell>
                <mxCell id="16" value="&lt;font style=&quot;font-size: 8px;&quot;&gt;/register&lt;/font&gt;" style="edgeLabel;resizable=0;html=1;;align=center;verticalAlign=middle;" parent="15" connectable="0" vertex="1">
                    <mxGeometry relative="1" as="geometry">
                        <mxPoint y="-5" as="offset"/>
                    </mxGeometry>
                </mxCell>
                <mxCell id="17" value="DB" style="shape=step;perimeter=stepPerimeter;whiteSpace=wrap;html=1;fixedSize=1;rounded=1;" parent="Ivx73bPxGIifTJIDBlVP-31" vertex="1">
                    <mxGeometry x="82.22222222222223" y="205.33333333333334" width="123.33333333333334" height="74.66666666666667" as="geometry"/>
                </mxCell>
                <mxCell id="19" value="" style="endArrow=classic;html=1;exitX=1;exitY=0.5;exitDx=0;exitDy=0;entryX=1;entryY=1;entryDx=0;entryDy=0;" parent="Ivx73bPxGIifTJIDBlVP-31" source="9" target="12" edge="1">
                    <mxGeometry relative="1" as="geometry">
                        <mxPoint x="-20.555555555555557" y="158.66666666666666" as="sourcePoint"/>
                        <mxPoint x="82.22222222222223" y="158.66666666666666" as="targetPoint"/>
                    </mxGeometry>
                </mxCell>
                <mxCell id="20" value="" style="shape=message;html=1;outlineConnect=0;" parent="19" vertex="1">
                    <mxGeometry width="20" height="14" relative="1" as="geometry">
                        <mxPoint x="-10" y="-7" as="offset"/>
                    </mxGeometry>
                </mxCell>
                <mxCell id="25" value="" style="endArrow=classic;html=1;exitX=0;exitY=1;exitDx=0;exitDy=0;entryX=0;entryY=0.5;entryDx=0;entryDy=0;" parent="Ivx73bPxGIifTJIDBlVP-31" source="14" target="9" edge="1">
                    <mxGeometry relative="1" as="geometry">
                        <mxPoint x="61.66666666666667" y="149.33333333333334" as="sourcePoint"/>
                        <mxPoint x="164.44444444444446" y="149.33333333333334" as="targetPoint"/>
                    </mxGeometry>
                </mxCell>
                <mxCell id="26" value="" style="shape=message;html=1;outlineConnect=0;" parent="25" vertex="1">
                    <mxGeometry width="20" height="14" relative="1" as="geometry">
                        <mxPoint x="-10" y="-7" as="offset"/>
                    </mxGeometry>
                </mxCell>
                <mxCell id="27" value="" style="endArrow=classic;startArrow=classic;html=1;exitX=1;exitY=0;exitDx=0;exitDy=0;entryX=0;entryY=1;entryDx=0;entryDy=0;" parent="Ivx73bPxGIifTJIDBlVP-31" source="6" target="9" edge="1">
                    <mxGeometry width="50" height="50" relative="1" as="geometry">
                        <mxPoint x="92.50000000000001" y="177.33333333333334" as="sourcePoint"/>
                        <mxPoint x="143.88888888888889" y="130.66666666666666" as="targetPoint"/>
                    </mxGeometry>
                </mxCell>
                <mxCell id="28" value="" style="endArrow=classic;startArrow=classic;html=1;entryX=0.5;entryY=1;entryDx=0;entryDy=0;exitX=0.5;exitY=0;exitDx=0;exitDy=0;" parent="Ivx73bPxGIifTJIDBlVP-31" source="17" target="9" edge="1">
                    <mxGeometry width="50" height="50" relative="1" as="geometry">
                        <mxPoint x="92.50000000000001" y="177.33333333333334" as="sourcePoint"/>
                        <mxPoint x="143.88888888888889" y="130.66666666666666" as="targetPoint"/>
                    </mxGeometry>
                </mxCell>
                <mxCell id="30" value="&lt;h1 style=&quot;margin-top: 0px;&quot;&gt;Students:&lt;/h1&gt;&lt;p&gt;/register&lt;br&gt;/profile&lt;/p&gt;" style="text;html=1;whiteSpace=wrap;overflow=hidden;rounded=0;" parent="1" vertex="1">
                    <mxGeometry x="480" y="60" width="160" height="90" as="geometry"/>
                </mxCell>
                <mxCell id="31" value="&lt;h1 style=&quot;margin-top: 0px;&quot;&gt;Teachers:&lt;/h1&gt;&lt;p&gt;/register&lt;br&gt;/create_group&lt;br&gt;/add_students&lt;br&gt;/add_post&lt;br&gt;/add_sheduled_post&lt;br&gt;/get_group&lt;br&gt;/get_groups&lt;/p&gt;" style="text;html=1;whiteSpace=wrap;overflow=hidden;rounded=0;" parent="1" vertex="1">
                    <mxGeometry x="480" y="160" width="160" height="160" as="geometry"/>
                </mxCell>
            </root>
        </mxGraphModel>
    </diagram>
    <diagram id="EinKxfpIKvSrKkIm9oVH" name="Scenarios">
        <mxGraphModel dx="1198" dy="688" grid="1" gridSize="10" guides="1" tooltips="1" connect="1" arrows="1" fold="1" page="1" pageScale="1" pageWidth="850" pageHeight="1100" math="0" shadow="0">
            <root>
                <mxCell id="0"/>
                <mxCell id="1" parent="0"/>
                <mxCell id="4aSiaUzjJqXqdG4OL_pE-18" value="" style="group" vertex="1" connectable="0" parent="1">
                    <mxGeometry x="20" y="190" width="807" height="92.5" as="geometry"/>
                </mxCell>
                <mxCell id="PNOQmqBXUfy6Uqa_pOv8-1" value="&lt;h2&gt;Group creation&lt;/h2&gt;" style="text;html=1;align=center;verticalAlign=middle;resizable=0;points=[];autosize=1;strokeColor=none;fillColor=none;container=0;" parent="4aSiaUzjJqXqdG4OL_pE-18" vertex="1">
                    <mxGeometry y="22.5" width="150" height="60" as="geometry"/>
                </mxCell>
                <mxCell id="4aSiaUzjJqXqdG4OL_pE-17" value="" style="group" vertex="1" connectable="0" parent="4aSiaUzjJqXqdG4OL_pE-18">
                    <mxGeometry x="247" width="560" height="92.5" as="geometry"/>
                </mxCell>
                <mxCell id="4aSiaUzjJqXqdG4OL_pE-2" value="" style="edgeStyle=none;html=1;" edge="1" parent="4aSiaUzjJqXqdG4OL_pE-17" source="r0xU0cHbrd9sG3DsY1of-1" target="4aSiaUzjJqXqdG4OL_pE-1">
                    <mxGeometry relative="1" as="geometry"/>
                </mxCell>
                <mxCell id="r0xU0cHbrd9sG3DsY1of-1" value="&lt;font style=&quot;font-size: 10px;&quot;&gt;/add_group&lt;/font&gt;" style="whiteSpace=wrap;html=1;movable=1;resizable=1;rotatable=1;deletable=1;editable=1;locked=0;connectable=1;" vertex="1" parent="4aSiaUzjJqXqdG4OL_pE-17">
                    <mxGeometry y="37.5" width="80" height="30" as="geometry"/>
                </mxCell>
                <mxCell id="4aSiaUzjJqXqdG4OL_pE-1" value="&lt;font style=&quot;font-size: 10px;&quot;&gt;S or T?&lt;/font&gt;" style="rhombus;whiteSpace=wrap;html=1;resizable=1;" vertex="1" parent="4aSiaUzjJqXqdG4OL_pE-17">
                    <mxGeometry x="120" y="12.5" width="80" height="80" as="geometry"/>
                </mxCell>
                <mxCell id="4aSiaUzjJqXqdG4OL_pE-12" value="" style="edgeStyle=none;html=1;" edge="1" parent="4aSiaUzjJqXqdG4OL_pE-17" source="4aSiaUzjJqXqdG4OL_pE-5" target="4aSiaUzjJqXqdG4OL_pE-11">
                    <mxGeometry relative="1" as="geometry"/>
                </mxCell>
                <mxCell id="4aSiaUzjJqXqdG4OL_pE-5" value="&lt;font style=&quot;font-size: 10px;&quot;&gt;credentials&lt;/font&gt;" style="whiteSpace=wrap;html=1;movable=1;resizable=1;rotatable=1;deletable=1;editable=1;locked=0;connectable=1;" vertex="1" parent="4aSiaUzjJqXqdG4OL_pE-17">
                    <mxGeometry x="240" y="12.5" width="80" height="30" as="geometry"/>
                </mxCell>
                <mxCell id="4aSiaUzjJqXqdG4OL_pE-7" value="" style="endArrow=classic;html=1;exitX=1;exitY=0.5;exitDx=0;exitDy=0;entryX=0;entryY=0.5;entryDx=0;entryDy=0;edgeStyle=orthogonalEdgeStyle;" edge="1" parent="4aSiaUzjJqXqdG4OL_pE-17" source="4aSiaUzjJqXqdG4OL_pE-1" target="4aSiaUzjJqXqdG4OL_pE-5">
                    <mxGeometry width="50" height="50" relative="1" as="geometry">
                        <mxPoint x="30" y="-2.5" as="sourcePoint"/>
                        <mxPoint x="80" y="-52.5" as="targetPoint"/>
                        <Array as="points">
                            <mxPoint x="210" y="52.5"/>
                            <mxPoint x="210" y="27.5"/>
                        </Array>
                    </mxGeometry>
                </mxCell>
                <mxCell id="4aSiaUzjJqXqdG4OL_pE-8" value="&lt;span style=&quot;font-size: 10px;&quot;&gt;/menu&lt;/span&gt;" style="whiteSpace=wrap;html=1;movable=1;resizable=1;rotatable=1;deletable=1;editable=1;locked=0;connectable=1;" vertex="1" parent="4aSiaUzjJqXqdG4OL_pE-17">
                    <mxGeometry x="240" y="62.5" width="80" height="30" as="geometry"/>
                </mxCell>
                <mxCell id="4aSiaUzjJqXqdG4OL_pE-10" value="" style="endArrow=classic;html=1;exitX=1;exitY=0.5;exitDx=0;exitDy=0;entryX=0;entryY=0.5;entryDx=0;entryDy=0;edgeStyle=orthogonalEdgeStyle;" edge="1" parent="4aSiaUzjJqXqdG4OL_pE-17" source="4aSiaUzjJqXqdG4OL_pE-1" target="4aSiaUzjJqXqdG4OL_pE-8">
                    <mxGeometry width="50" height="50" relative="1" as="geometry">
                        <mxPoint x="30" y="-2.5" as="sourcePoint"/>
                        <mxPoint x="80" y="-52.5" as="targetPoint"/>
                        <Array as="points">
                            <mxPoint x="210" y="52.5"/>
                            <mxPoint x="210" y="77.5"/>
                        </Array>
                    </mxGeometry>
                </mxCell>
                <mxCell id="4aSiaUzjJqXqdG4OL_pE-15" value="" style="edgeStyle=none;html=1;" edge="1" parent="4aSiaUzjJqXqdG4OL_pE-17" source="4aSiaUzjJqXqdG4OL_pE-11" target="4aSiaUzjJqXqdG4OL_pE-14">
                    <mxGeometry relative="1" as="geometry"/>
                </mxCell>
                <mxCell id="4aSiaUzjJqXqdG4OL_pE-11" value="&lt;font size=&quot;1&quot;&gt;add s?&lt;/font&gt;" style="rhombus;whiteSpace=wrap;html=1;resizable=1;" vertex="1" parent="4aSiaUzjJqXqdG4OL_pE-17">
                    <mxGeometry x="350" width="55" height="55" as="geometry"/>
                </mxCell>
                <mxCell id="4aSiaUzjJqXqdG4OL_pE-13" value="" style="endArrow=classic;html=1;exitX=0.5;exitY=1;exitDx=0;exitDy=0;entryX=1;entryY=0.5;entryDx=0;entryDy=0;edgeStyle=orthogonalEdgeStyle;" edge="1" parent="4aSiaUzjJqXqdG4OL_pE-17" source="4aSiaUzjJqXqdG4OL_pE-11" target="4aSiaUzjJqXqdG4OL_pE-8">
                    <mxGeometry width="50" height="50" relative="1" as="geometry">
                        <mxPoint x="270" y="-2.5" as="sourcePoint"/>
                        <mxPoint x="320" y="-52.5" as="targetPoint"/>
                    </mxGeometry>
                </mxCell>
                <mxCell id="4aSiaUzjJqXqdG4OL_pE-14" value="&lt;font size=&quot;1&quot;&gt;/add_students&lt;/font&gt;" style="whiteSpace=wrap;html=1;resizable=1;" vertex="1" parent="4aSiaUzjJqXqdG4OL_pE-17">
                    <mxGeometry x="440" y="12.5" width="80" height="30" as="geometry"/>
                </mxCell>
                <mxCell id="4aSiaUzjJqXqdG4OL_pE-16" value="" style="endArrow=classic;html=1;exitX=1;exitY=0.5;exitDx=0;exitDy=0;dashed=1;dashPattern=8 8;" edge="1" parent="4aSiaUzjJqXqdG4OL_pE-17" source="4aSiaUzjJqXqdG4OL_pE-14">
                    <mxGeometry width="50" height="50" relative="1" as="geometry">
                        <mxPoint x="110" y="17.5" as="sourcePoint"/>
                        <mxPoint x="560" y="27.5" as="targetPoint"/>
                    </mxGeometry>
                </mxCell>
                <mxCell id="4aSiaUzjJqXqdG4OL_pE-23" value="&lt;font style=&quot;font-size: 9px;&quot;&gt;T&lt;/font&gt;" style="text;html=1;align=center;verticalAlign=middle;resizable=0;points=[];autosize=1;strokeColor=none;fillColor=none;" vertex="1" parent="4aSiaUzjJqXqdG4OL_pE-17">
                    <mxGeometry x="188" y="25" width="30" height="30" as="geometry"/>
                </mxCell>
                <mxCell id="4aSiaUzjJqXqdG4OL_pE-24" value="&lt;font style=&quot;font-size: 9px;&quot;&gt;S&lt;/font&gt;" style="text;html=1;align=center;verticalAlign=middle;resizable=0;points=[];autosize=1;strokeColor=none;fillColor=none;" vertex="1" parent="4aSiaUzjJqXqdG4OL_pE-17">
                    <mxGeometry x="188" y="50" width="30" height="30" as="geometry"/>
                </mxCell>
                <mxCell id="4aSiaUzjJqXqdG4OL_pE-21" value="" style="endArrow=classic;html=1;dashed=1;dashPattern=8 8;" edge="1" parent="1">
                    <mxGeometry width="50" height="50" relative="1" as="geometry">
                        <mxPoint x="687" y="45" as="sourcePoint"/>
                        <mxPoint x="727" y="45" as="targetPoint"/>
                    </mxGeometry>
                </mxCell>
                <mxCell id="BNpU6rcxYdnrvcf5yjln-25" value="&lt;h2&gt;Registration&lt;/h2&gt;" style="text;html=1;align=center;verticalAlign=middle;resizable=0;points=[];autosize=1;strokeColor=none;fillColor=none;container=0;" parent="1" vertex="1">
                    <mxGeometry x="20" y="55" width="130" height="60" as="geometry"/>
                </mxCell>
                <mxCell id="BNpU6rcxYdnrvcf5yjln-10" value="" style="edgeStyle=orthogonalEdgeStyle;html=1;exitX=1;exitY=0.5;exitDx=0;exitDy=0;entryX=0;entryY=0.5;entryDx=0;entryDy=0;movable=1;resizable=1;rotatable=1;deletable=1;editable=1;locked=0;connectable=1;" parent="1" source="BNpU6rcxYdnrvcf5yjln-4" target="BNpU6rcxYdnrvcf5yjln-9" edge="1">
                    <mxGeometry relative="1" as="geometry">
                        <Array as="points">
                            <mxPoint x="477" y="85"/>
                            <mxPoint x="477" y="130"/>
                            <mxPoint x="507" y="130"/>
                        </Array>
                    </mxGeometry>
                </mxCell>
                <mxCell id="BNpU6rcxYdnrvcf5yjln-4" value="&lt;font style=&quot;font-size: 10px;&quot;&gt;S or T?&lt;/font&gt;" style="rhombus;whiteSpace=wrap;html=1;rounded=0;movable=1;resizable=1;rotatable=1;deletable=1;editable=1;locked=0;connectable=1;" parent="1" vertex="1">
                    <mxGeometry x="387" y="45" width="80" height="80" as="geometry"/>
                </mxCell>
                <mxCell id="BNpU6rcxYdnrvcf5yjln-18" value="" style="edgeStyle=none;html=1;movable=1;resizable=1;rotatable=1;deletable=1;editable=1;locked=0;connectable=1;" parent="1" source="BNpU6rcxYdnrvcf5yjln-6" target="BNpU6rcxYdnrvcf5yjln-17" edge="1">
                    <mxGeometry relative="1" as="geometry"/>
                </mxCell>
                <mxCell id="BNpU6rcxYdnrvcf5yjln-6" value="&lt;font style=&quot;font-size: 10px;&quot;&gt;confirmation code&lt;/font&gt;" style="whiteSpace=wrap;html=1;movable=1;resizable=1;rotatable=1;deletable=1;editable=1;locked=0;connectable=1;" parent="1" vertex="1">
                    <mxGeometry x="507" y="30" width="80" height="30" as="geometry"/>
                </mxCell>
                <mxCell id="BNpU6rcxYdnrvcf5yjln-8" value="&lt;font style=&quot;font-size: 10px;&quot;&gt;T&lt;/font&gt;" style="text;html=1;align=center;verticalAlign=middle;resizable=1;points=[];autosize=1;strokeColor=none;fillColor=none;movable=1;rotatable=1;deletable=1;editable=1;locked=0;connectable=1;" parent="1" vertex="1">
                    <mxGeometry x="452" y="50" width="30" height="30" as="geometry"/>
                </mxCell>
                <mxCell id="BNpU6rcxYdnrvcf5yjln-9" value="&lt;font style=&quot;font-size: 10px;&quot;&gt;credentials&lt;/font&gt;" style="whiteSpace=wrap;html=1;movable=1;resizable=1;rotatable=1;deletable=1;editable=1;locked=0;connectable=1;" parent="1" vertex="1">
                    <mxGeometry x="507" y="115" width="80" height="32" as="geometry"/>
                </mxCell>
                <mxCell id="BNpU6rcxYdnrvcf5yjln-11" value="&lt;font style=&quot;font-size: 10px;&quot;&gt;S&lt;/font&gt;" style="text;html=1;align=center;verticalAlign=middle;resizable=1;points=[];autosize=1;strokeColor=none;fillColor=none;movable=1;rotatable=1;deletable=1;editable=1;locked=0;connectable=1;" parent="1" vertex="1">
                    <mxGeometry x="452" y="95" width="30" height="30" as="geometry"/>
                </mxCell>
                <mxCell id="BNpU6rcxYdnrvcf5yjln-15" value="" style="endArrow=classic;html=1;edgeStyle=orthogonalEdgeStyle;entryX=0;entryY=0.5;entryDx=0;entryDy=0;movable=1;resizable=1;rotatable=1;deletable=1;editable=1;locked=0;connectable=1;" parent="1" target="BNpU6rcxYdnrvcf5yjln-16" edge="1">
                    <mxGeometry width="50" height="50" relative="1" as="geometry">
                        <mxPoint x="477" y="76" as="sourcePoint"/>
                        <mxPoint x="487" y="140" as="targetPoint"/>
                    </mxGeometry>
                </mxCell>
                <mxCell id="BNpU6rcxYdnrvcf5yjln-16" value="&lt;h6&gt;&lt;font face=&quot;Helvetica&quot; style=&quot;font-size: 7px;&quot;&gt;&lt;font style=&quot;&quot;&gt;confirmation code&lt;/font&gt; to admin&lt;/font&gt;&lt;/h6&gt;" style="rounded=1;whiteSpace=wrap;html=1;shadow=0;glass=0;fillColor=#dae8fc;strokeColor=#6c8ebf;movable=1;resizable=1;rotatable=1;deletable=1;editable=1;locked=0;connectable=1;" parent="1" vertex="1">
                    <mxGeometry x="507" y="70" width="80" height="30" as="geometry"/>
                </mxCell>
                <mxCell id="BNpU6rcxYdnrvcf5yjln-17" value="&lt;font style=&quot;font-size: 10px;&quot;&gt;credentials&lt;/font&gt;" style="whiteSpace=wrap;html=1;movable=1;resizable=1;rotatable=1;deletable=1;editable=1;locked=0;connectable=1;" parent="1" vertex="1">
                    <mxGeometry x="617" y="30" width="70" height="30" as="geometry"/>
                </mxCell>
                <mxCell id="BNpU6rcxYdnrvcf5yjln-21" value="" style="endArrow=classic;html=1;exitX=1;exitY=0.5;exitDx=0;exitDy=0;entryX=0;entryY=0.5;entryDx=0;entryDy=0;edgeStyle=orthogonalEdgeStyle;movable=1;resizable=1;rotatable=1;deletable=1;editable=1;locked=0;connectable=1;" parent="1" source="BNpU6rcxYdnrvcf5yjln-4" target="BNpU6rcxYdnrvcf5yjln-6" edge="1">
                    <mxGeometry width="50" height="50" relative="1" as="geometry">
                        <mxPoint x="487" y="165" as="sourcePoint"/>
                        <mxPoint x="537" y="115" as="targetPoint"/>
                        <Array as="points">
                            <mxPoint x="477" y="85"/>
                            <mxPoint x="477" y="45"/>
                        </Array>
                    </mxGeometry>
                </mxCell>
                <mxCell id="BNpU6rcxYdnrvcf5yjln-5" value="" style="edgeStyle=none;html=1;movable=1;resizable=1;rotatable=1;deletable=1;editable=1;locked=0;connectable=1;" parent="1" source="BNpU6rcxYdnrvcf5yjln-2" target="BNpU6rcxYdnrvcf5yjln-4" edge="1">
                    <mxGeometry relative="1" as="geometry"/>
                </mxCell>
                <mxCell id="BNpU6rcxYdnrvcf5yjln-3" value="" style="edgeStyle=none;html=1;movable=1;resizable=1;rotatable=1;deletable=1;editable=1;locked=0;connectable=1;" parent="1" source="BNpU6rcxYdnrvcf5yjln-1" target="BNpU6rcxYdnrvcf5yjln-2" edge="1">
                    <mxGeometry relative="1" as="geometry"/>
                </mxCell>
                <mxCell id="BNpU6rcxYdnrvcf5yjln-1" value="&lt;font style=&quot;font-size: 10px;&quot;&gt;/start&lt;/font&gt;" style="whiteSpace=wrap;html=1;movable=1;resizable=1;rotatable=1;deletable=1;editable=1;locked=0;connectable=1;" parent="1" vertex="1">
                    <mxGeometry x="187" y="70" width="40" height="30" as="geometry"/>
                </mxCell>
                <mxCell id="BNpU6rcxYdnrvcf5yjln-2" value="&lt;font style=&quot;font-size: 10px;&quot;&gt;/registration&lt;/font&gt;" style="whiteSpace=wrap;html=1;movable=1;resizable=1;rotatable=1;deletable=1;editable=1;locked=0;connectable=1;" parent="1" vertex="1">
                    <mxGeometry x="267" y="70" width="80" height="30" as="geometry"/>
                </mxCell>
                <mxCell id="4aSiaUzjJqXqdG4OL_pE-22" value="" style="endArrow=classic;html=1;exitX=1;exitY=0.5;exitDx=0;exitDy=0;dashed=1;dashPattern=8 8;" edge="1" parent="1" source="BNpU6rcxYdnrvcf5yjln-9">
                    <mxGeometry width="50" height="50" relative="1" as="geometry">
                        <mxPoint x="587" y="131.25" as="sourcePoint"/>
                        <mxPoint x="627" y="130.75" as="targetPoint"/>
                    </mxGeometry>
                </mxCell>
            </root>
        </mxGraphModel>
    </diagram>
</mxfile>